<svg aria-hidden="true" style="position: absolute; width: 0; height: 0; overflow: hidden;" version="1.1" xmlns="http://www.w3.org/2000/svg" xmlns:xlink="http://www.w3.org/1999/xlink">
<defs>
<symbol id="icon-logo" viewBox="0 0 39 32">
<path fill="#e09446" style="fill: var(--color1, #e09446)" d="M19.623 0c-4.734 0-8.563 3.832-8.563 8.57 0 3.941 2.647 7.25 6.261 8.255 0.071 0.021 0.131 0.068 0.169 0.132l2.133 3.687 2.133-3.687c0.037-0.064 0.098-0.111 0.169-0.132 3.612-1.006 6.261-4.315 6.261-8.255 0-4.738-3.829-8.57-8.563-8.57v0zM19.623 2.544c3.339 0 6.055 2.713 6.055 6.055s-2.716 6.055-6.055 6.055c-3.339 0-6.055-2.713-6.055-6.055s2.716-6.055 6.055-6.055zM18.047 4.223c-0.115 0.015-0.205 0.104-0.222 0.218s0.044 0.226 0.149 0.273c0.205 0.101 0.32 0.203 0.381 0.279s0.074 0.118 0.073 0.183c-0.002 0.13-0.114 0.356-0.271 0.601s-0.354 0.51-0.367 0.858c-0.006 0.174 0.046 0.361 0.169 0.521s0.299 0.301 0.542 0.425h0c0.061 0.031 0.132 0.037 0.198 0.015s0.12-0.068 0.151-0.129 0.037-0.132 0.015-0.198c-0.021-0.065-0.068-0.12-0.129-0.151-0.199-0.101-0.31-0.197-0.367-0.271s-0.068-0.124-0.066-0.191c0.005-0.134 0.128-0.355 0.286-0.601s0.355-0.523 0.359-0.872c0.002-0.175-0.064-0.363-0.191-0.521s-0.308-0.288-0.557-0.411l0 0c-0.038-0.020-0.081-0.030-0.125-0.029-0.010-0.001-0.019-0.001-0.029 0v0zM19.439 4.663c-0.096 0.013-0.177 0.078-0.209 0.169s-0.011 0.193 0.055 0.263c0.163 0.183 0.171 0.271 0.154 0.374s-0.092 0.238-0.191 0.403-0.225 0.369-0.235 0.631c-0.010 0.262 0.115 0.54 0.388 0.806h0c0.047 0.056 0.115 0.090 0.188 0.094s0.144-0.025 0.196-0.077c0.051-0.052 0.078-0.124 0.073-0.197s-0.040-0.141-0.098-0.186c-0.209-0.204-0.231-0.325-0.227-0.425s0.060-0.217 0.154-0.374c0.094-0.156 0.217-0.34 0.257-0.586s-0.038-0.544-0.271-0.806l0-0c-0.053-0.061-0.132-0.094-0.213-0.088-0.007-0-0.015-0-0.022 0l0-0zM16.214 8.13c-0.118 0.025-0.204 0.128-0.205 0.249 0 0-0.007 0.454 0.029 1.012s0.106 1.211 0.315 1.694c0.246 0.566 0.743 1.084 1.122 1.459l0 0c0.049 0.048 0.115 0.074 0.183 0.073h2.353c0.068 0.001 0.134-0.026 0.183-0.073 0.345-0.341 0.786-0.798 1.048-1.305 0.023-0.002 0.127-0.012 0.278-0.037 0.167-0.027 0.357-0.062 0.521-0.132 0.369-0.159 0.729-0.404 0.946-0.696 0.13-0.175 0.265-0.392 0.315-0.652s-0.008-0.572-0.235-0.821c-0.139-0.153-0.318-0.202-0.498-0.242s-0.377-0.058-0.557-0.066c-0.137-0.006-0.247-0.002-0.352 0v-0.213l0-0c-0.005-0.138-0.118-0.248-0.257-0.249h-5.139c-0.017-0.002-0.034-0.002-0.051 0h0zM21.653 9.105c0.101-0.002 0.209-0.005 0.337 0 0.162 0.007 0.337 0.022 0.469 0.051s0.22 0.088 0.227 0.095c0.127 0.139 0.136 0.237 0.11 0.374s-0.114 0.298-0.22 0.44c-0.123 0.165-0.445 0.401-0.74 0.528-0.063 0.027-0.239 0.071-0.388 0.095 0.11-0.412 0.164-0.882 0.191-1.298 0.007-0.102 0.011-0.193 0.015-0.286h0z"></path>
<path fill="#000" style="fill: var(--color2, #000)" d="M6.071 25.115l-0.706 0.297c-0.055-0.179-0.129-0.343-0.223-0.491-0.091-0.149-0.201-0.275-0.33-0.38-0.127-0.107-0.271-0.19-0.433-0.248-0.162-0.061-0.34-0.091-0.532-0.091-0.206 0-0.396 0.034-0.57 0.103-0.171 0.066-0.325 0.158-0.462 0.277-0.135 0.118-0.253 0.256-0.355 0.413s-0.187 0.325-0.256 0.504c-0.069 0.176-0.12 0.359-0.153 0.549s-0.050 0.376-0.050 0.557c0 0.289 0.033 0.576 0.099 0.863 0.069 0.286 0.176 0.543 0.322 0.772 0.149 0.228 0.34 0.414 0.574 0.557 0.234 0.14 0.517 0.211 0.85 0.211 0.176 0 0.343-0.029 0.499-0.087 0.157-0.061 0.299-0.142 0.425-0.244 0.129-0.105 0.242-0.227 0.338-0.367s0.173-0.292 0.231-0.454l0.714 0.285c-0.105 0.261-0.248 0.491-0.429 0.689-0.182 0.195-0.389 0.358-0.623 0.487-0.231 0.129-0.48 0.226-0.747 0.289-0.264 0.066-0.531 0.099-0.801 0.099-0.292 0-0.572-0.036-0.842-0.107-0.267-0.072-0.516-0.173-0.747-0.305s-0.442-0.292-0.631-0.479c-0.187-0.187-0.348-0.395-0.483-0.623-0.132-0.228-0.235-0.476-0.31-0.743-0.072-0.27-0.107-0.55-0.107-0.842s0.036-0.571 0.107-0.838c0.074-0.27 0.177-0.519 0.31-0.747 0.135-0.231 0.296-0.44 0.483-0.627 0.19-0.187 0.4-0.347 0.631-0.479s0.48-0.234 0.747-0.305c0.27-0.072 0.55-0.107 0.842-0.107 0.281 0 0.554 0.033 0.821 0.099 0.27 0.066 0.52 0.166 0.751 0.301 0.231 0.132 0.436 0.3 0.615 0.504 0.182 0.201 0.325 0.438 0.429 0.71zM13.026 26.741v0.078c-0.005 0.231-0.030 0.471-0.074 0.718-0.041 0.248-0.1 0.495-0.177 0.743s-0.169 0.493-0.277 0.735c-0.107 0.242-0.228 0.473-0.363 0.693-0.132 0.223-0.275 0.431-0.429 0.623-0.154 0.195-0.316 0.367-0.487 0.516l-0.615-0.355c0.096-0.162 0.183-0.34 0.26-0.532 0.080-0.19 0.151-0.389 0.215-0.598s0.117-0.424 0.161-0.644c0.047-0.22 0.085-0.439 0.116-0.656s0.052-0.431 0.066-0.64c0.016-0.212 0.025-0.413 0.025-0.603 0-0.149-0.001-0.316-0.004-0.504 0-0.19-0.011-0.382-0.033-0.578-0.019-0.195-0.052-0.385-0.099-0.57-0.047-0.187-0.117-0.354-0.21-0.499-0.091-0.146-0.209-0.263-0.355-0.351-0.143-0.088-0.322-0.132-0.537-0.132-0.19 0-0.354 0.033-0.491 0.099-0.135 0.063-0.25 0.15-0.347 0.26-0.094 0.107-0.169 0.233-0.227 0.376-0.055 0.143-0.099 0.294-0.132 0.454-0.030 0.157-0.051 0.316-0.062 0.479-0.008 0.16-0.012 0.311-0.012 0.454v1.152h1.779v0.681h-1.779v1.445h-1.639v-3.021c0-0.432 0.069-0.834 0.206-1.205s0.332-0.693 0.582-0.966c0.253-0.275 0.556-0.49 0.908-0.644 0.355-0.157 0.75-0.235 1.185-0.235 0.294 0 0.57 0.043 0.825 0.128 0.259 0.083 0.494 0.198 0.706 0.347 0.212 0.146 0.4 0.321 0.565 0.524 0.168 0.201 0.307 0.421 0.417 0.66 0.113 0.239 0.198 0.492 0.256 0.759s0.084 0.537 0.078 0.809zM16.071 29.585h-1.639v-5.943h4.268v0.759h-2.629v1.837h2.031v0.755h-2.031v2.592zM24.165 29.585h-4.268v-5.943h4.268v0.759h-2.629v1.837h2.031v0.755h-2.031v1.833h2.629v0.759zM26.278 29.585h-0.759v-5.943h1.065l3.611 4.082v-4.082h0.755v5.943h-1.065l-3.607-4.078v4.078zM38.292 26.741v0.078c-0.005 0.231-0.030 0.471-0.074 0.718-0.041 0.248-0.1 0.495-0.177 0.743s-0.169 0.493-0.277 0.735c-0.107 0.242-0.228 0.473-0.363 0.693-0.132 0.223-0.275 0.431-0.429 0.623-0.154 0.195-0.316 0.367-0.487 0.516l-0.615-0.355c0.096-0.162 0.183-0.34 0.26-0.532 0.080-0.19 0.151-0.389 0.215-0.598s0.117-0.424 0.161-0.644c0.047-0.22 0.085-0.439 0.116-0.656s0.052-0.431 0.066-0.64c0.017-0.212 0.025-0.413 0.025-0.603 0-0.149-0.001-0.316-0.004-0.504 0-0.19-0.011-0.382-0.033-0.578-0.019-0.195-0.052-0.385-0.099-0.57-0.047-0.187-0.117-0.354-0.21-0.499-0.091-0.146-0.209-0.263-0.355-0.351-0.143-0.088-0.322-0.132-0.537-0.132-0.19 0-0.354 0.033-0.491 0.099-0.135 0.063-0.25 0.15-0.347 0.26-0.094 0.107-0.169 0.233-0.227 0.376-0.055 0.143-0.099 0.294-0.132 0.454-0.030 0.157-0.051 0.316-0.062 0.479-0.008 0.16-0.012 0.311-0.012 0.454v1.152h1.779v0.681h-1.779v1.445h-1.639v-3.021c0-0.432 0.069-0.834 0.206-1.205s0.332-0.693 0.582-0.966c0.253-0.275 0.556-0.49 0.908-0.644 0.355-0.157 0.75-0.235 1.185-0.235 0.294 0 0.57 0.043 0.825 0.128 0.259 0.083 0.494 0.198 0.706 0.347 0.212 0.146 0.4 0.321 0.566 0.524 0.168 0.201 0.307 0.421 0.417 0.66 0.113 0.239 0.198 0.492 0.256 0.759s0.084 0.537 0.078 0.809z"></path>
</symbol>
<symbol id="icon-search" viewBox="0 0 32 32">
<path d="M31.008 27.231l-7.58-6.447c-0.784-0.705-1.622-1.029-2.299-0.998 1.789-2.096 2.87-4.815 2.87-7.787 0-6.627-5.373-12-12-12s-12 5.373-12 12 5.373 12 12 12c2.972 0 5.691-1.081 7.787-2.87-0.031 0.677 0.293 1.515 0.998 2.299l6.447 7.58c1.104 1.226 2.907 1.33 4.007 0.23s0.997-2.903-0.23-4.007zM12 20c-4.418 0-8-3.582-8-8s3.582-8 8-8 8 3.582 8 8-3.582 8-8 8z"></path>
</symbol>
<symbol id="icon-menu" viewBox="0 0 32 32">
<path d="M2 6h28v6h-28zM2 14h28v6h-28zM2 22h28v6h-28z"></path>
</symbol>
<symbol id="icon-vector" viewBox="0 0 78 32">
<path fill="#eab665" stroke="#E39212" style="fill: var(--color1, #eab665)" d="M0.195 24.443v-24.248h72.173c-2.124 0.358-3.778 0.951-5.063 1.735-2.21 1.349-3.309 3.25-3.837 5.433-0.525 2.173-0.487 4.633-0.425 7.11 0.003 0.115 0.006 0.23 0.009 0.346 0.060 2.373 0.122 4.754-0.27 6.954-0.409 2.299-1.311 4.385-3.218 6.037-1.91 1.655-4.85 2.891-9.37 3.447-9.029 1.111-24.287-0.505-50-6.813z"></path>
</symbol>
</defs>
</svg>
