<svg aria-hidden="true" style="width:0;height:0;position:absolute;overflow:hidden" xmlns="http://www.w3.org/2000/svg"><defs><symbol id="icon-logo" viewBox="0 0 39 32"><path fill="#e09446" style="fill:var(--color1,#e09446)" d="M19.623 0a8.56 8.56 0 0 0-8.563 8.57 8.56 8.56 0 0 0 6.261 8.255.293.293 0 0 1 .169.132l2.133 3.687 2.133-3.687a.29.29 0 0 1 .169-.132 8.565 8.565 0 0 0 6.261-8.255A8.56 8.56 0 0 0 19.623 0zm0 2.544c3.339 0 6.055 2.713 6.055 6.055s-2.716 6.055-6.055 6.055c-3.339 0-6.055-2.713-6.055-6.055s2.716-6.055 6.055-6.055zm-1.576 1.679a.258.258 0 0 0-.073.491c.205.101.32.203.381.279s.074.118.073.183c-.002.13-.114.356-.271.601s-.354.51-.367.858c-.006.174.046.361.169.521s.299.301.542.425a.26.26 0 0 0 .364-.312.26.26 0 0 0-.129-.151c-.199-.101-.31-.197-.367-.271s-.068-.124-.066-.191c.005-.134.128-.355.286-.601s.355-.523.359-.872c.002-.175-.064-.363-.191-.521s-.308-.288-.557-.411a.256.256 0 0 0-.125-.029.14.14 0 0 0-.029 0zm1.392.44a.258.258 0 0 0-.154.432c.163.183.171.271.154.374s-.092.238-.191.403-.225.369-.235.631c-.01.262.115.54.388.806a.258.258 0 1 0 .359-.366c-.209-.204-.231-.325-.227-.425s.06-.217.154-.374c.094-.156.217-.34.257-.586s-.038-.544-.271-.806a.257.257 0 0 0-.213-.088h-.022zM16.214 8.13a.257.257 0 0 0-.205.249s-.007.454.029 1.012.106 1.211.315 1.694c.246.566.743 1.084 1.122 1.459a.256.256 0 0 0 .183.073h2.353a.26.26 0 0 0 .183-.073c.345-.341.786-.798 1.048-1.305a3.9 3.9 0 0 0 .278-.037c.167-.027.357-.062.521-.132.369-.159.729-.404.946-.696.13-.175.265-.392.315-.652s-.008-.572-.235-.821c-.139-.153-.318-.202-.498-.242s-.377-.058-.557-.066c-.137-.006-.247-.002-.352 0V8.38a.259.259 0 0 0-.257-.249h-5.139a.217.217 0 0 0-.051 0zm5.439.975c.101-.002.209-.005.337 0 .162.007.337.022.469.051s.22.088.227.095c.127.139.136.237.11.374s-.114.298-.22.44c-.123.165-.445.401-.74.528a2.226 2.226 0 0 1-.388.095c.11-.412.164-.882.191-1.298.007-.102.011-.193.015-.286z"/><path style="fill:var(--color2,#000)" d="m6.071 25.115-.706.297a2.014 2.014 0 0 0-.223-.491 1.478 1.478 0 0 0-.33-.38 1.5 1.5 0 0 0-.965-.339 1.549 1.549 0 0 0-1.032.38c-.135.118-.253.256-.355.413s-.187.325-.256.504c-.069.176-.12.359-.153.549s-.05.376-.05.557c0 .289.033.576.099.863.069.286.176.543.322.772.149.228.34.414.574.557.234.14.517.211.85.211a1.423 1.423 0 0 0 .924-.331c.129-.105.242-.227.338-.367s.173-.292.231-.454l.714.285a2.263 2.263 0 0 1-.429.689 2.496 2.496 0 0 1-.623.487c-.231.129-.48.226-.747.289a3.29 3.29 0 0 1-1.643-.008A3.036 3.036 0 0 1 .75 28.191a3.207 3.207 0 0 1-.31-.743c-.072-.27-.107-.55-.107-.842s.036-.571.107-.838a3.081 3.081 0 0 1 .793-1.374 3.063 3.063 0 0 1 1.378-.784 3.405 3.405 0 0 1 1.663-.008c.27.066.52.166.751.301.231.132.436.3.615.504.182.201.325.438.429.71zm6.955 1.626v.078a4.68 4.68 0 0 1-.074.718c-.041.248-.1.495-.177.743s-.169.493-.277.735a5.833 5.833 0 0 1-.363.693 5.348 5.348 0 0 1-.429.623 3.826 3.826 0 0 1-.487.516l-.615-.355c.096-.162.183-.34.26-.532a6.268 6.268 0 0 0 .376-1.242c.047-.22.085-.439.116-.656s.052-.431.066-.64a8.05 8.05 0 0 0 .025-.603c0-.149-.001-.316-.004-.504a5.17 5.17 0 0 0-.132-1.148 1.674 1.674 0 0 0-.21-.499 1.055 1.055 0 0 0-.355-.351 1.008 1.008 0 0 0-.537-.132c-.19 0-.354.033-.491.099-.135.063-.25.15-.347.26a1.31 1.31 0 0 0-.227.376 2.884 2.884 0 0 0-.132.454c-.03.157-.051.316-.062.479-.008.16-.012.311-.012.454v1.152h1.779v.681H8.938v1.445H7.299v-3.021c0-.432.069-.834.206-1.205s.332-.693.582-.966c.253-.275.556-.49.908-.644.355-.157.75-.235 1.185-.235.294 0 .57.043.825.128a2.698 2.698 0 0 1 1.271.871c.168.201.307.421.417.66a3.514 3.514 0 0 1 .334 1.568zm3.045 2.844h-1.639v-5.943H18.7v.759h-2.629v1.837h2.031v.755h-2.031v2.592zm8.094 0h-4.268v-5.943h4.268v.759h-2.629v1.837h2.031v.755h-2.031v1.833h2.629v.759zm2.113 0h-.759v-5.943h1.065l3.611 4.082v-4.082h.755v5.943h-1.065l-3.607-4.078v4.078zm12.014-2.844v.078a4.68 4.68 0 0 1-.074.718c-.041.248-.1.495-.177.743s-.169.493-.277.735a5.833 5.833 0 0 1-.363.693 5.348 5.348 0 0 1-.429.623 3.826 3.826 0 0 1-.487.516l-.615-.355c.096-.162.183-.34.26-.532a6.268 6.268 0 0 0 .376-1.242c.047-.22.085-.439.116-.656s.052-.431.066-.64a7.55 7.55 0 0 0 .025-.603c0-.149-.001-.316-.004-.504a5.17 5.17 0 0 0-.132-1.148 1.674 1.674 0 0 0-.21-.499 1.055 1.055 0 0 0-.355-.351 1.008 1.008 0 0 0-.537-.132c-.19 0-.354.033-.491.099-.135.063-.25.15-.347.26a1.31 1.31 0 0 0-.227.376 2.884 2.884 0 0 0-.132.454c-.03.157-.051.316-.062.479-.008.16-.012.311-.012.454v1.152h1.779v.681h-1.779v1.445h-1.639v-3.021c0-.432.069-.834.206-1.205s.332-.693.582-.966c.253-.275.556-.49.908-.644.355-.157.75-.235 1.185-.235.294 0 .57.043.825.128.259.083.494.198.706.347.212.146.4.321.566.524.168.201.307.421.417.66a3.514 3.514 0 0 1 .334 1.568z"/></symbol><symbol id="icon-search" viewBox="0 0 32 32"><path d="m31.008 27.231-7.58-6.447c-.784-.705-1.622-1.029-2.299-.998a11.954 11.954 0 0 0 2.87-7.787c0-6.627-5.373-12-12-12s-12 5.373-12 12 5.373 12 12 12c2.972 0 5.691-1.081 7.787-2.87-.031.677.293 1.515.998 2.299l6.447 7.58c1.104 1.226 2.907 1.33 4.007.23s.997-2.903-.23-4.007zM12 20a8 8 0 1 1 0-16 8 8 0 0 1 0 16z"/></symbol><symbol id="icon-menu" viewBox="0 0 32 32"><path d="M2 6h28v6H2zm0 8h28v6H2zm0 8h28v6H2z"/></symbol><symbol id="icon-vector" viewBox="0 0 78 32"><path fill="#eab665" stroke="#E39212" style="fill:var(--color1,#eab665)" d="M.195 24.443V.195h72.173c-2.124.358-3.778.951-5.063 1.735-2.21 1.349-3.309 3.25-3.837 5.433-.525 2.173-.487 4.633-.425 7.11l.009.346c.06 2.373.122 4.754-.27 6.954-.409 2.299-1.311 4.385-3.218 6.037-1.91 1.655-4.85 2.891-9.37 3.447-9.029 1.111-24.287-.505-50-6.813z"/></symbol></defs></svg>